<?xml version="1.0" standalone="no"?>
<!DOCTYPE svg PUBLIC "-//W3C//DTD SVG 20010904//EN"
 "http://www.w3.org/TR/2001/REC-SVG-20010904/DTD/svg10.dtd">
<svg version="1.0" xmlns="http://www.w3.org/2000/svg"
 width="260.000000pt" height="260.000000pt" viewBox="0 0 260.000000 260.000000"
 preserveAspectRatio="xMidYMid meet">
<metadata>
Created by potrace 1.11, written by Peter Selinger 2001-2013
</metadata>
<g transform="translate(0.000000,260.000000) scale(0.100000,-0.100000)"
fill="#000000" stroke="none">
<path d="M2119 2349 c0 -8 -1 -75 -2 -149 l-2 -135 -30 -1 c-16 -1 -79 -3
-140 -4 -189 -4 -329 -45 -461 -132 -103 -69 -308 -275 -411 -413 -12 -17 -29
-39 -38 -50 -9 -11 -65 -85 -125 -165 -173 -229 -355 -400 -443 -416 -15 -2
-39 -9 -54 -15 -16 -6 -29 -10 -30 -10 -2 1 -81 1 -176 1 l-172 0 0 -177 0
-178 170 1 c203 1 267 8 370 41 44 13 152 65 180 85 88 63 262 231 335 323 17
22 44 56 60 75 38 47 141 183 160 210 14 21 37 50 105 135 94 117 247 252 328
288 77 35 99 39 243 42 l131 3 0 -124 c0 -69 3 -127 6 -130 2 -3 42 34 88 81
46 48 119 124 163 169 43 44 105 109 139 143 l61 62 -227 227 c-125 125 -227
220 -228 213z"/>
<path d="M35 1881 c0 -149 2 -176 15 -178 8 -1 92 -4 185 -6 103 -3 184 -10
205 -17 89 -33 222 -116 262 -165 l17 -20 14 20 c50 70 152 204 172 229 14 15
25 33 25 40 0 16 -104 98 -194 151 -87 51 -222 100 -306 111 -30 4 -132 7
-225 8 l-170 2 0 -175z"/>
<path d="M2119 1097 c0 -12 -1 -71 -1 -130 l0 -108 -126 2 c-105 1 -140 6
-202 26 -41 13 -82 31 -91 39 -8 8 -19 14 -24 14 -9 0 -82 58 -134 106 l-34
31 -53 -71 c-56 -76 -118 -156 -146 -188 -17 -20 -16 -22 11 -47 134 -123 261
-198 406 -239 39 -11 77 -20 85 -21 8 0 38 -3 65 -7 28 -3 93 -7 145 -8 l95
-1 0 -143 c0 -88 4 -142 10 -142 6 0 109 99 229 220 l220 220 -51 53 c-29 28
-86 88 -128 132 -261 272 -275 285 -276 262z"/>
</g>
</svg>
